<?xml version="1.0" encoding="UTF-8" standalone="no"?>
<!DOCTYPE svg PUBLIC "-//W3C//DTD SVG 1.1//EN" "http://www.w3.org/Graphics/SVG/1.1/DTD/svg11.dtd">
<svg version="1.1" xmlns="http://www.w3.org/2000/svg" xmlns:xlink="http://www.w3.org/1999/xlink" preserveAspectRatio="xMidYMid meet" viewBox="0 0 80 80" width="80" height="80"><defs><path d="M41.08 0.02L41.62 0.03L42.16 0.06L42.69 0.09L43.23 0.12L43.76 0.17L44.29 0.22L44.81 0.27L45.34 0.34L45.86 0.41L46.38 0.49L46.9 0.57L47.41 0.66L47.93 0.76L48.44 0.86L48.95 0.97L49.45 1.09L49.96 1.21L50.46 1.34L50.96 1.48L51.46 1.63L51.96 1.78L52.45 1.93L52.95 2.1L53.44 2.27L53.92 2.45L54.41 2.63L54.89 2.82L55.38 3.02L55.86 3.22L56.33 3.44L56.81 3.65L57.28 3.88L57.75 4.11L58.22 4.35L58.69 4.59L59.15 4.84L59.62 5.1L60.08 5.37L60.54 5.64L60.99 5.91L61.44 6.19L61.88 6.48L62.32 6.77L62.75 7.06L63.18 7.36L63.6 7.67L64.02 7.98L64.43 8.29L64.84 8.61L65.25 8.93L65.65 9.26L66.04 9.59L66.43 9.93L66.82 10.27L67.2 10.62L67.58 10.97L67.95 11.33L68.31 11.69L68.67 12.06L69.03 12.43L69.38 12.8L69.73 13.18L70.07 13.57L70.41 13.96L70.74 14.35L71.07 14.75L71.39 15.16L71.71 15.57L72.03 15.98L72.34 16.4L72.64 16.82L72.94 17.25L73.23 17.69L73.52 18.12L73.81 18.57L74.09 19.01L74.36 19.47L74.64 19.92L74.9 20.38L75.16 20.85L75.41 21.31L75.65 21.78L75.89 22.25L76.12 22.72L76.35 23.19L76.57 23.67L76.78 24.15L76.98 24.63L77.18 25.11L77.37 25.59L77.55 26.08L77.73 26.57L77.9 27.06L78.07 27.55L78.23 28.04L78.38 28.54L78.52 29.04L78.66 29.54L78.79 30.04L78.91 30.55L79.03 31.06L79.14 31.56L79.24 32.08L79.34 32.59L79.43 33.11L79.52 33.62L79.59 34.14L79.66 34.67L79.73 35.19L79.78 35.72L79.83 36.24L79.88 36.78L79.91 37.31L79.94 37.84L79.97 38.38L79.98 38.92L79.99 39.46L80 40L79.99 40.55L79.98 41.09L79.97 41.63L79.94 42.16L79.91 42.7L79.88 43.23L79.83 43.76L79.78 44.29L79.73 44.82L79.66 45.34L79.59 45.86L79.52 46.38L79.43 46.9L79.34 47.41L79.24 47.93L79.14 48.44L79.03 48.95L78.91 49.46L78.79 49.96L78.66 50.46L78.52 50.97L78.38 51.46L78.22 51.96L78.07 52.46L77.9 52.95L77.73 53.44L77.55 53.93L77.37 54.41L77.18 54.9L76.98 55.38L76.78 55.86L76.57 56.34L76.35 56.81L76.12 57.28L75.89 57.76L75.65 58.23L75.41 58.69L75.16 59.16L74.9 59.62L74.63 60.08L74.36 60.54L74.09 60.99L73.81 61.44L73.52 61.88L73.23 62.32L72.94 62.75L72.64 63.18L72.34 63.6L72.03 64.02L71.71 64.44L71.39 64.85L71.07 65.25L70.74 65.65L70.41 66.05L70.07 66.44L69.73 66.82L69.38 67.2L69.03 67.58L68.67 67.95L68.31 68.32L67.95 68.68L67.58 69.03L67.2 69.39L66.82 69.73L66.43 70.08L66.04 70.41L65.65 70.75L65.25 71.08L64.84 71.4L64.43 71.72L64.02 72.03L63.6 72.34L63.18 72.64L62.75 72.94L62.32 73.24L61.88 73.53L61.43 73.81L60.99 74.09L60.53 74.37L60.08 74.64L59.62 74.9L59.15 75.16L58.69 75.41L58.22 75.66L57.75 75.9L57.28 76.13L56.81 76.35L56.33 76.57L55.86 76.78L55.38 76.99L54.89 77.18L54.41 77.37L53.92 77.56L53.44 77.74L52.94 77.91L52.45 78.07L51.96 78.23L51.46 78.38L50.96 78.52L50.46 78.66L49.96 78.79L49.45 78.92L48.95 79.03L48.44 79.14L47.92 79.25L47.41 79.35L46.9 79.44L46.38 79.52L45.86 79.6L45.34 79.67L44.81 79.73L44.29 79.79L43.76 79.84L43.23 79.88L42.69 79.92L42.16 79.95L41.62 79.97L41.08 79.99L40.54 80L40 80L39.46 80L38.91 79.99L38.38 79.97L37.84 79.95L37.3 79.92L36.77 79.88L36.24 79.84L35.71 79.79L35.19 79.73L34.66 79.67L34.14 79.6L33.62 79.52L33.1 79.44L32.59 79.35L32.07 79.25L31.56 79.14L31.05 79.03L30.54 78.92L30.04 78.79L29.54 78.66L29.04 78.52L28.54 78.38L28.04 78.23L27.55 78.07L27.05 77.91L26.56 77.74L26.07 77.56L25.59 77.37L25.1 77.18L24.62 76.99L24.14 76.78L23.67 76.57L23.19 76.35L22.72 76.13L22.25 75.9L21.78 75.66L21.31 75.41L20.84 75.16L20.38 74.9L19.92 74.64L19.46 74.37L19.01 74.09L18.56 73.81L18.12 73.53L17.68 73.24L17.25 72.94L16.82 72.64L16.4 72.34L15.98 72.03L15.56 71.72L15.15 71.4L14.75 71.07L14.35 70.75L13.95 70.41L13.56 70.08L13.18 69.73L12.8 69.39L12.42 69.03L12.05 68.68L11.68 68.32L11.32 67.95L10.97 67.58L10.61 67.2L10.27 66.82L9.92 66.44L9.59 66.05L9.25 65.65L8.93 65.25L8.6 64.85L8.28 64.44L7.97 64.02L7.66 63.6L7.36 63.18L7.06 62.75L6.76 62.32L6.47 61.88L6.19 61.44L5.91 60.99L5.63 60.54L5.36 60.08L5.1 59.62L4.84 59.16L4.59 58.69L4.34 58.23L4.11 57.76L3.87 57.28L3.65 56.81L3.43 56.34L3.22 55.86L3.02 55.38L2.82 54.9L2.63 54.41L2.44 53.93L2.26 53.44L2.09 52.95L1.93 52.46L1.77 51.96L1.62 51.46L1.48 50.97L1.34 50.46L1.21 49.96L1.08 49.46L0.97 48.95L0.86 48.44L0.75 47.93L0.66 47.42L0.56 46.9L0.48 46.38L0.4 45.86L0.33 45.34L0.27 44.82L0.21 44.29L0.16 43.76L0.12 43.23L0.08 42.7L0.05 42.16L0.03 41.63L0.01 41.09L0 40.55L0 40L0 39.46L0.01 38.92L0.03 38.38L0.05 37.84L0.08 37.31L0.12 36.78L0.16 36.24L0.21 35.72L0.27 35.19L0.33 34.67L0.4 34.14L0.48 33.62L0.56 33.11L0.66 32.59L0.75 32.08L0.86 31.57L0.97 31.06L1.08 30.55L1.21 30.04L1.34 29.54L1.48 29.04L1.62 28.54L1.77 28.04L1.93 27.55L2.09 27.06L2.26 26.57L2.44 26.08L2.63 25.59L2.82 25.11L3.02 24.63L3.22 24.15L3.43 23.67L3.65 23.19L3.87 22.72L4.11 22.25L4.34 21.78L4.59 21.31L4.84 20.85L5.1 20.38L5.36 19.92L5.63 19.47L5.91 19.01L6.19 18.57L6.47 18.12L6.76 17.69L7.06 17.25L7.36 16.82L7.66 16.4L7.97 15.98L8.29 15.57L8.6 15.16L8.93 14.75L9.26 14.35L9.59 13.96L9.93 13.57L10.27 13.18L10.62 12.8L10.97 12.43L11.32 12.06L11.69 11.69L12.05 11.33L12.42 10.97L12.8 10.62L13.18 10.27L13.56 9.93L13.96 9.59L14.35 9.26L14.75 8.93L15.15 8.61L15.56 8.29L15.98 7.98L16.4 7.67L16.82 7.36L17.25 7.06L17.68 6.77L18.12 6.48L18.56 6.19L19.01 5.91L19.46 5.64L19.92 5.37L20.38 5.1L20.84 4.84L21.31 4.59L21.78 4.35L22.25 4.11L22.72 3.88L23.19 3.65L23.67 3.44L24.14 3.22L24.62 3.02L25.11 2.82L25.59 2.63L26.08 2.45L26.56 2.27L27.05 2.1L27.55 1.93L28.04 1.78L28.54 1.63L29.04 1.48L29.54 1.34L30.04 1.21L30.55 1.09L31.05 0.97L31.56 0.86L32.07 0.76L32.59 0.66L33.1 0.57L33.62 0.49L34.14 0.41L34.66 0.34L35.19 0.27L35.71 0.22L36.24 0.17L36.77 0.12L37.3 0.09L37.84 0.06L38.38 0.03L38.92 0.02L39.46 0.01L40 0L40.54 0.01L41.08 0.02ZM51.62 20.16L51.54 20.17L51.46 20.17L51.39 20.18L51.32 20.19L51.24 20.2L51.17 20.21L51.1 20.22L51.03 20.24L50.95 20.26L50.88 20.28L50.81 20.3L50.74 20.32L50.68 20.34L50.61 20.37L50.54 20.39L50.47 20.42L50.41 20.45L50.34 20.48L50.28 20.52L50.21 20.55L50.15 20.59L50.08 20.62L50.02 20.66L49.96 20.71L49.9 20.75L49.84 20.79L49.78 20.84L49.72 20.89L49.66 20.94L49.6 20.99L49.54 21.04L49.48 21.09L49.43 21.15L40 30.58L30.57 21.15L30.51 21.09L30.46 21.04L30.4 20.99L30.34 20.94L30.28 20.89L30.22 20.84L30.16 20.79L30.1 20.75L30.04 20.71L29.98 20.66L29.91 20.62L29.85 20.59L29.79 20.55L29.72 20.52L29.66 20.48L29.59 20.45L29.52 20.42L29.46 20.39L29.39 20.37L29.32 20.34L29.25 20.32L29.18 20.3L29.11 20.28L29.04 20.26L28.97 20.24L28.9 20.22L28.83 20.21L28.75 20.2L28.68 20.19L28.61 20.18L28.53 20.17L28.46 20.17L28.38 20.16L28.3 20.16L28.23 20.16L28.15 20.16L28.07 20.16L27.99 20.17L27.91 20.17L27.83 20.18L27.76 20.19L27.68 20.2L27.61 20.21L27.53 20.22L27.46 20.24L27.39 20.26L27.31 20.28L27.24 20.3L27.17 20.32L27.1 20.34L27.03 20.37L26.96 20.39L26.89 20.42L26.82 20.45L26.76 20.48L26.69 20.52L26.62 20.55L26.56 20.59L26.5 20.62L26.43 20.66L26.37 20.71L26.31 20.75L26.24 20.79L26.18 20.84L26.12 20.89L26.06 20.94L26 20.99L25.95 21.04L25.89 21.09L25.83 21.15L21.14 25.84L21.09 25.89L21.03 25.95L20.98 26.01L20.93 26.07L20.88 26.13L20.83 26.19L20.79 26.25L20.74 26.31L20.7 26.37L20.66 26.44L20.62 26.5L20.58 26.56L20.55 26.63L20.51 26.69L20.48 26.76L20.45 26.83L20.42 26.9L20.39 26.96L20.36 27.03L20.34 27.1L20.31 27.17L20.29 27.24L20.27 27.32L20.25 27.39L20.24 27.46L20.22 27.54L20.21 27.61L20.19 27.69L20.18 27.76L20.17 27.84L20.17 27.92L20.16 27.99L20.16 28.07L20.16 28.15L20.15 28.23L20.16 28.31L20.16 28.39L20.16 28.46L20.17 28.54L20.17 28.61L20.18 28.69L20.19 28.76L20.21 28.83L20.22 28.9L20.24 28.98L20.25 29.05L20.27 29.12L20.29 29.19L20.31 29.26L20.34 29.33L20.36 29.39L20.39 29.46L20.42 29.53L20.45 29.59L20.48 29.66L20.51 29.73L20.55 29.79L20.58 29.85L20.62 29.92L20.66 29.98L20.7 30.04L20.74 30.1L20.79 30.17L20.83 30.23L20.88 30.29L20.93 30.34L20.98 30.4L21.03 30.46L21.09 30.52L21.14 30.58L30.57 40L21.14 49.43L21.09 49.49L21.03 49.54L20.98 49.6L20.93 49.66L20.88 49.72L20.83 49.78L20.79 49.84L20.74 49.9L20.7 49.96L20.66 50.02L20.62 50.09L20.58 50.15L20.55 50.21L20.51 50.28L20.48 50.34L20.45 50.41L20.42 50.48L20.39 50.54L20.36 50.61L20.34 50.68L20.31 50.75L20.29 50.82L20.27 50.89L20.25 50.96L20.24 51.03L20.22 51.1L20.21 51.17L20.19 51.25L20.18 51.32L20.17 51.39L20.17 51.47L20.16 51.54L20.16 51.62L20.16 51.7L20.15 51.77L20.16 51.85L20.16 51.93L20.16 52.01L20.17 52.09L20.17 52.17L20.18 52.24L20.19 52.32L20.21 52.39L20.22 52.47L20.24 52.54L20.25 52.62L20.27 52.69L20.29 52.76L20.31 52.83L20.34 52.9L20.36 52.97L20.39 53.04L20.42 53.11L20.45 53.18L20.48 53.24L20.51 53.31L20.55 53.38L20.58 53.44L20.62 53.51L20.66 53.57L20.7 53.63L20.74 53.69L20.79 53.76L20.83 53.82L20.88 53.88L20.93 53.94L20.98 54L21.03 54.05L21.09 54.11L21.14 54.17L25.83 58.86L25.89 58.91L25.95 58.97L26 59.02L26.06 59.07L26.12 59.12L26.18 59.17L26.24 59.21L26.31 59.26L26.37 59.3L26.43 59.34L26.5 59.38L26.56 59.42L26.62 59.46L26.69 59.49L26.76 59.52L26.82 59.55L26.89 59.58L26.96 59.61L27.03 59.64L27.1 59.66L27.17 59.69L27.24 59.71L27.31 59.73L27.39 59.75L27.46 59.77L27.53 59.78L27.61 59.79L27.68 59.81L27.76 59.82L27.83 59.83L27.91 59.83L27.99 59.84L28.07 59.84L28.15 59.85L28.23 59.85L28.3 59.85L28.38 59.84L28.46 59.84L28.53 59.83L28.61 59.83L28.68 59.82L28.75 59.81L28.83 59.79L28.9 59.78L28.97 59.77L29.04 59.75L29.11 59.73L29.18 59.71L29.25 59.69L29.32 59.66L29.39 59.64L29.46 59.61L29.52 59.58L29.59 59.55L29.66 59.52L29.72 59.49L29.79 59.46L29.85 59.42L29.91 59.38L29.98 59.34L30.04 59.3L30.1 59.26L30.16 59.21L30.22 59.17L30.28 59.12L30.34 59.07L30.4 59.02L30.46 58.97L30.51 58.91L30.57 58.86L40 49.43L49.43 58.86L49.48 58.91L49.54 58.97L49.6 59.02L49.66 59.07L49.72 59.12L49.78 59.17L49.84 59.21L49.9 59.26L49.96 59.3L50.02 59.34L50.08 59.38L50.15 59.42L50.21 59.46L50.28 59.49L50.34 59.52L50.41 59.55L50.47 59.58L50.54 59.61L50.61 59.64L50.68 59.66L50.74 59.69L50.81 59.71L50.88 59.73L50.95 59.75L51.03 59.77L51.1 59.78L51.17 59.79L51.24 59.81L51.32 59.82L51.39 59.83L51.46 59.83L51.54 59.84L51.62 59.84L51.69 59.85L51.77 59.85L51.85 59.85L51.93 59.84L52.01 59.84L52.09 59.83L52.16 59.83L52.24 59.82L52.32 59.81L52.39 59.79L52.47 59.78L52.54 59.77L52.61 59.75L52.69 59.73L52.76 59.71L52.83 59.69L52.9 59.66L52.97 59.64L53.04 59.61L53.11 59.58L53.17 59.55L53.24 59.52L53.31 59.49L53.37 59.46L53.44 59.42L53.5 59.38L53.57 59.34L53.63 59.3L53.69 59.26L53.75 59.21L53.81 59.17L53.87 59.12L53.93 59.07L53.99 59.02L54.05 58.97L54.11 58.91L54.17 58.86L58.85 54.17L58.91 54.11L58.96 54.05L59.02 54L59.07 53.94L59.12 53.88L59.16 53.82L59.21 53.76L59.25 53.69L59.3 53.63L59.34 53.57L59.38 53.51L59.42 53.44L59.45 53.38L59.49 53.31L59.52 53.24L59.55 53.18L59.58 53.11L59.61 53.04L59.64 52.97L59.66 52.9L59.68 52.83L59.71 52.76L59.73 52.69L59.75 52.62L59.76 52.54L59.78 52.47L59.79 52.39L59.8 52.32L59.81 52.24L59.82 52.17L59.83 52.09L59.84 52.01L59.84 51.93L59.84 51.85L59.84 51.77L59.84 51.72L59.84 51.67L59.84 51.62L59.83 51.56L59.82 51.51L59.81 51.45L59.8 51.39L59.79 51.33L59.78 51.27L59.76 51.21L59.75 51.15L59.73 51.09L59.71 51.03L59.68 50.97L59.66 50.9L59.64 50.84L59.61 50.77L59.58 50.7L59.55 50.63L59.52 50.57L59.49 50.5L59.45 50.43L59.42 50.35L59.38 50.28L59.34 50.21L59.3 50.14L59.25 50.06L59.21 49.98L59.16 49.91L59.12 49.83L59.07 49.75L59.02 49.67L58.96 49.59L58.91 49.51L58.85 49.43L49.43 40L58.85 30.58L58.91 30.52L58.96 30.46L59.02 30.4L59.07 30.34L59.12 30.29L59.16 30.23L59.21 30.17L59.25 30.1L59.3 30.04L59.34 29.98L59.38 29.92L59.42 29.85L59.45 29.79L59.49 29.73L59.52 29.66L59.55 29.59L59.58 29.53L59.61 29.46L59.64 29.39L59.66 29.33L59.68 29.26L59.71 29.19L59.73 29.12L59.75 29.05L59.76 28.98L59.78 28.9L59.79 28.83L59.8 28.76L59.81 28.69L59.82 28.61L59.83 28.54L59.84 28.46L59.84 28.39L59.84 28.31L59.84 28.23L59.84 28.15L59.84 28.07L59.84 27.99L59.83 27.92L59.82 27.84L59.81 27.76L59.8 27.69L59.79 27.61L59.78 27.54L59.76 27.46L59.75 27.39L59.73 27.32L59.71 27.24L59.68 27.17L59.66 27.1L59.64 27.03L59.61 26.96L59.58 26.9L59.55 26.83L59.52 26.76L59.49 26.69L59.45 26.63L59.42 26.56L59.38 26.5L59.34 26.44L59.3 26.37L59.25 26.31L59.21 26.25L59.16 26.19L59.12 26.13L59.07 26.07L59.02 26.01L58.96 25.95L58.91 25.89L58.85 25.84L54.17 21.15L54.11 21.09L54.05 21.04L53.99 20.99L53.93 20.94L53.87 20.89L53.81 20.84L53.75 20.79L53.69 20.75L53.63 20.71L53.57 20.66L53.5 20.62L53.44 20.59L53.37 20.55L53.31 20.52L53.24 20.48L53.17 20.45L53.11 20.42L53.04 20.39L52.97 20.37L52.9 20.34L52.83 20.32L52.76 20.3L52.69 20.28L52.61 20.26L52.54 20.24L52.47 20.22L52.39 20.21L52.32 20.2L52.24 20.19L52.16 20.18L52.09 20.17L52.01 20.17L51.93 20.16L51.85 20.16L51.77 20.16L51.69 20.16L51.62 20.16Z" id="b6ehz0twj"></path></defs><g><g><g><use xlink:href="#b6ehz0twj" opacity="1" fill="#e0e0e0" fill-opacity="1"></use><g><use xlink:href="#b6ehz0twj" opacity="1" fill-opacity="0" stroke="#000000" stroke-width="1" stroke-opacity="0"></use></g></g></g></g></svg>