<?xml version="1.0" encoding="UTF-8" standalone="no"?>
<!DOCTYPE svg PUBLIC "-//W3C//DTD SVG 1.1//EN" "http://www.w3.org/Graphics/SVG/1.1/DTD/svg11.dtd">
<svg version="1.1" xmlns="http://www.w3.org/2000/svg" xmlns:xlink="http://www.w3.org/1999/xlink" preserveAspectRatio="xMidYMid meet" viewBox="0 0 80 80" width="80" height="80"><defs><path d="M43.28 0.13L44.9 0.3L46.49 0.52L48.06 0.81L49.61 1.16L51.14 1.57L52.64 2.04L54.12 2.56L55.57 3.14L56.99 3.78L58.38 4.46L59.74 5.2L61.07 5.99L62.36 6.83L63.62 7.72L64.85 8.65L66.03 9.63L67.18 10.65L68.28 11.71L69.35 12.82L70.37 13.97L71.35 15.15L72.28 16.38L73.17 17.63L74.01 18.93L74.8 20.26L75.54 21.62L76.22 23.01L76.86 24.43L77.44 25.88L77.96 27.36L78.43 28.86L78.84 30.39L79.19 31.94L79.48 33.51L79.7 35.11L79.87 36.72L79.97 38.35L80 40L79.97 41.65L79.87 43.28L79.7 44.9L79.48 46.49L79.19 48.06L78.84 49.61L78.43 51.14L77.96 52.64L77.44 54.12L76.86 55.57L76.22 56.99L75.54 58.38L74.8 59.74L74.01 61.07L73.17 62.37L72.28 63.63L71.35 64.85L70.37 66.03L69.35 67.18L68.29 68.29L67.18 69.35L66.03 70.37L64.85 71.35L63.62 72.28L62.37 73.17L61.07 74.01L59.74 74.8L58.38 75.54L56.99 76.22L55.57 76.86L54.12 77.44L52.64 77.96L51.14 78.43L49.61 78.84L48.06 79.19L46.49 79.48L44.9 79.7L43.28 79.87L41.65 79.97L40 80L38.35 79.97L36.72 79.87L35.11 79.7L33.51 79.48L31.94 79.19L30.39 78.84L28.86 78.43L27.36 77.96L25.88 77.44L24.43 76.86L23.01 76.22L21.62 75.54L20.26 74.8L18.93 74.01L17.63 73.17L16.37 72.28L15.15 71.35L13.97 70.37L12.82 69.35L11.71 68.29L10.65 67.18L9.63 66.03L8.65 64.85L7.72 63.63L6.83 62.37L5.99 61.07L5.2 59.74L4.46 58.38L3.78 56.99L3.14 55.57L2.56 54.12L2.04 52.64L1.57 51.14L1.16 49.61L0.81 48.06L0.52 46.49L0.3 44.9L0.13 43.28L0.03 41.65L0 40L0.03 38.35L0.13 36.72L0.3 35.11L0.52 33.51L0.81 31.94L1.16 30.39L1.57 28.86L2.04 27.36L2.56 25.88L3.14 24.43L3.78 23.01L4.46 21.62L5.2 20.26L5.99 18.93L6.83 17.63L7.72 16.38L8.65 15.15L9.63 13.97L10.65 12.82L11.71 11.71L12.82 10.65L13.97 9.63L15.15 8.65L16.37 7.72L17.63 6.83L18.93 5.99L20.26 5.2L21.62 4.46L23.01 3.78L24.43 3.14L25.88 2.56L27.36 2.04L28.86 1.57L30.39 1.16L31.94 0.81L33.51 0.52L35.11 0.3L36.72 0.13L38.35 0.03L40 0L41.65 0.03L43.28 0.13ZM23.03 32.46L15.49 40L34.34 58.86L64.51 28.69L56.97 21.15L34.34 43.77L23.03 32.46Z" id="diLx4720M"></path></defs><g><g><g><use xlink:href="#diLx4720M" opacity="1" fill="#e0e0e0" fill-opacity="1"></use><g><use xlink:href="#diLx4720M" opacity="1" fill-opacity="0" stroke="#000000" stroke-width="1" stroke-opacity="0"></use></g></g></g></g></svg>